<svg width="192" height="30" viewBox="0 0 192 30" fill="none" xmlns="http://www.w3.org/2000/svg">
<g id="logo" clip-path="url(#clip0_262_1737)">
<g id="text">
<path d="M52.9077 18.6019C52.999 17.4571 52.8613 16.3055 52.5027 15.2157C52.1441 14.1259 51.572 13.1203 50.8206 12.2589C50.1238 11.5451 49.2873 10.9864 48.3645 10.6186C47.4417 10.2508 46.4531 10.0819 45.462 10.123C44.341 10.0696 43.2218 10.2604 42.1802 10.6825C41.1386 11.1046 40.1989 11.7482 39.4248 12.5696C38.0015 14.2673 37.1812 16.3977 37.0944 18.6214L52.9077 18.6019ZM29.0149 9.2233H35.2186V10.7314H29.0277V24.246C29.0277 26.4272 29.5015 27.8706 32.0815 27.8706H34.9945V29.4175C34.5912 29.4175 32.5681 29.4175 32.1776 29.4175C28.4899 29.288 27.3119 27.6505 27.3119 24.2395V10.7314H24.4182V9.2233H27.3119V3.16505H29.0277L29.0149 9.2233ZM1.71621 29.4563H0.00683594V0.56958H1.7226L1.71621 29.4563ZM7.58055 29.4563H5.86478V10.6861C7.58056 9.90291 12.4142 8.46602 14.9942 8.46602C20.4425 8.46602 23.285 11.8123 23.285 16.5113V29.4563H21.5692V16.7638C21.5692 12.8803 19.6806 9.98706 15.0391 9.98706C12.6959 9.98706 9.66765 10.8867 7.58055 11.6829V29.4563ZM78.9836 10.0388C81.1923 9.30097 84.4446 8.47249 86.3972 8.47249C91.8455 8.47249 94.688 11.8188 94.688 16.5178V29.4628H92.9722V16.7638C92.9722 12.8803 91.0836 9.98706 86.4484 9.98706C84.1053 9.98706 81.0771 10.8867 78.9836 11.6829V29.4563H77.2678V0.56958H78.9836V10.0388ZM74.6877 27.9353C73.7147 28.468 72.6918 28.9016 71.6339 29.2298C70.0849 29.7373 68.467 29.9972 66.8387 30C64.2302 30.0794 61.6973 29.1086 59.7964 27.301C58.7579 26.266 57.9385 25.0281 57.3882 23.6628C56.8379 22.2975 56.5681 20.8333 56.5953 19.3592C56.5561 16.4374 57.6553 13.6173 59.6555 11.5081C60.5997 10.5628 61.7235 9.82085 62.9592 9.32693C64.1949 8.833 65.5168 8.59738 66.8451 8.6343C68.4307 8.60792 70.011 8.82618 71.5315 9.28155C72.6049 9.62552 73.636 10.0924 74.6045 10.6731V12.3883C73.4957 11.7409 72.3298 11.1992 71.1217 10.7702C69.7519 10.319 68.3176 10.1003 66.8771 10.123C65.7497 10.0934 64.6286 10.3034 63.5865 10.7393C62.5443 11.1753 61.6043 11.8274 60.8271 12.6537C59.1972 14.4488 58.3084 16.8063 58.3431 19.2427C58.2922 21.7479 59.1794 24.18 60.8271 26.0518C61.5993 26.8795 62.5388 27.5294 63.5817 27.9571C64.6246 28.3849 65.7464 28.5805 66.8707 28.5307C68.4302 28.5096 69.9751 28.2252 71.4418 27.6893C72.567 27.2876 73.6625 26.8053 74.7197 26.246L74.6877 27.9353ZM53.4134 27.9353C50.7859 29.2754 47.8863 29.9801 44.9434 29.9935C38.5861 29.8447 35.2698 25.0356 35.2698 19.3139C35.2698 16.2589 36.1917 13.3786 38.1764 11.3722C39.8217 9.70874 42.1969 8.64725 45.3788 8.589C48.3237 8.589 50.5005 9.52751 51.9666 11.0162C53.7528 12.8155 54.5722 15.4628 54.6106 18.4078C54.6106 18.9644 54.6106 19.5275 54.553 20.1036H37.0944C37.3633 24.3948 39.8601 28.3689 44.9434 28.5178C47.9098 28.4731 50.8194 27.6883 53.4134 26.233V27.9353Z" fill="#1C1B1F"/>
<path d="M119.426 28.246C118.448 28.9036 117.344 29.3448 116.186 29.5405C114.858 29.8087 113.507 29.9431 112.153 29.9417C110.537 29.9524 108.931 29.6876 107.403 29.1586C105.907 28.6372 104.553 27.7707 103.446 26.6278C102.226 25.3337 101.298 23.7881 100.725 22.0971C99.9967 19.9179 99.6521 17.6264 99.7073 15.3269C99.6398 12.964 100.025 10.6101 100.84 8.39482C101.487 6.69651 102.492 5.16129 103.785 3.89644C104.935 2.78822 106.312 1.95055 107.819 1.44336C109.263 0.950787 110.776 0.699382 112.3 0.699028C113.652 0.679619 115.002 0.787965 116.334 1.02265C117.265 1.18685 118.179 1.44265 119.061 1.78641L117.985 6.4466C117.299 6.12643 116.57 5.90842 115.821 5.79935C114.804 5.65221 113.776 5.58298 112.748 5.59223C111.743 5.55632 110.743 5.75211 109.823 6.16477C108.904 6.57743 108.089 7.19615 107.441 7.97411C106.105 9.5534 105.435 12.0086 105.431 15.3398C105.417 16.678 105.579 18.0121 105.911 19.3074C106.183 20.4324 106.675 21.4909 107.358 22.4207C108.009 23.2476 108.839 23.912 109.784 24.3625C110.839 24.8472 111.987 25.0861 113.145 25.0615C114.164 25.0837 115.181 24.9639 116.167 24.7055C116.919 24.4918 117.639 24.1806 118.312 23.7799L119.426 28.246Z" fill="#1C1B1F"/>
<path d="M159.727 5.77346C159.17 5.77346 158.62 5.77346 158.082 5.81229C157.651 5.82511 157.222 5.87929 156.801 5.97411V14.1359H159.106C160.394 14.203 161.667 13.834 162.723 13.0874C163.628 12.397 164.079 11.2449 164.074 9.63107C164.103 9.10614 164.018 8.58127 163.825 8.09285C163.633 7.60444 163.338 7.16417 162.96 6.80259C162.042 6.0558 160.877 5.68813 159.702 5.77346M151.379 1.5534C152.019 1.44984 152.659 1.34628 153.351 1.25566C154.042 1.16505 154.753 1.08738 155.457 1.0356C156.161 0.983817 156.84 0.93851 157.506 0.91262C158.172 0.88673 158.786 0.873784 159.33 0.873784C160.619 0.869902 161.906 0.991278 163.172 1.23624C164.361 1.44918 165.505 1.86969 166.552 2.47896C167.545 3.07516 168.364 3.92585 168.927 4.94498C169.566 6.13436 169.876 7.47603 169.823 8.82848C169.912 10.8278 169.355 12.802 168.236 14.4531C167.179 15.8997 165.684 16.9585 163.978 17.4693L165.899 18.712L172.256 29.4434H165.976L159.657 18.4401L156.859 17.89V29.4239H151.411L151.379 1.5534Z" fill="#1C1B1F"/>
<path d="M175.304 1.27508H191.802V6.17476H180.752V12.7249H190.81V17.6246H180.752V24.4984H192V29.4045H175.304V1.27508Z" fill="#1C1B1F"/>
</g>
<g id="Vector">
<path d="M127.108 6.61489H123.6V11.0874H127.108V6.61489Z" fill="#1F97D4"/>
<path d="M144.951 9.74757H142V13.5081H144.951V9.74757Z" fill="#1F97D4"/>
<path d="M141.904 21.2492H139.336V24.5178H141.904V21.2492Z" fill="#1F97D4"/>
<path d="M132.473 22.1812H129.906V25.4498H132.473V22.1812Z" fill="#1F97D4"/>
<path d="M140.623 25.9482H138.703V28.3948H140.623V25.9482Z" fill="#1F97D4"/>
<path d="M138.959 0.621359H137.601V2.35599H138.959V0.621359Z" fill="#1F97D4"/>
<path d="M125.194 19.6246H123.837V21.3592H125.194V19.6246Z" fill="#1F97D4"/>
<path d="M131.187 26.3107H129.829V28.0453H131.187V26.3107Z" fill="#1F97D4"/>
<path d="M128.12 22.9256H126.142V25.4498H128.12V22.9256Z" fill="#1F97D4"/>
<path d="M139.637 4.22007H137.659V6.74434H139.637V4.22007Z" fill="#1F97D4"/>
<path d="M142.422 1.57282H140.444V4.09709H142.422V1.57282Z" fill="#1F97D4"/>
<path d="M130.514 1.44984H128.536V3.97411H130.514V1.44984Z" fill="#1F97D4"/>
<path d="M130.514 4.93204H128.536V7.45631H130.514V4.93204Z" fill="#1F97D4"/>
<path d="M142.038 18.2201H140.835V19.754H142.038V18.2201Z" fill="#1F97D4"/>
<path d="M143.024 14.9061H141.82V16.4401H143.024V14.9061Z" fill="#1F97D4"/>
<path d="M141.046 8.22007H139.842V9.75405H141.046V8.22007Z" fill="#1F97D4"/>
<path d="M129.362 9.3657H128.005V11.0939H129.362V9.3657Z" fill="#1F97D4"/>
<path d="M147.48 10.7573H146.123V12.4919H147.48V10.7573Z" fill="#1F97D4"/>
<path d="M128.67 13.5534H127.313V15.288H128.67V13.5534Z" fill="#1F97D4"/>
<path d="M128.683 18.9838H126.711V21.5016H128.683V18.9838Z" fill="#1F97D4"/>
<path d="M127.134 3.34628H125.777V5.08091H127.134V3.34628Z" fill="#1F97D4"/>
<path d="M145.015 21.644H142.966V24.2524H145.015V21.644Z" fill="#1F97D4"/>
<path d="M136.872 22.8867H134.823V25.4951H136.872V22.8867Z" fill="#1F97D4"/>
<path d="M135.303 0H131.743V5.42395H136.001V0.634304L135.303 0Z" fill="#1F97D4"/>
<path d="M125.905 12.6796H122.352V18.11H126.603V13.3139L125.905 12.6796Z" fill="#1F97D4"/>
<path d="M147.486 14.356H143.927V19.7735H148.184V14.9838L147.486 14.356Z" fill="#1F97D4"/>
<path d="M144.535 5.20388H142.422V8.39482H145.15V5.76052L144.535 5.20388Z" fill="#1F97D4"/>
<path d="M135.566 26.8026H133.453V29.9871H136.18V27.3528L135.566 26.8026Z" fill="#1F97D4"/>
<path d="M135.303 1.06796H132.518V1.38511H135.303V1.06796Z" fill="#1F97D4"/>
<path d="M135.303 2.10356H132.518V2.42071H135.303V2.10356Z" fill="#1F97D4"/>
<path d="M135.303 3.13916H132.518V3.45631H135.303V3.13916Z" fill="#1F97D4"/>
<path d="M134.753 4.17476H132.518V4.49191H134.753V4.17476Z" fill="#1F97D4"/>
<path d="M135.303 0.634304H135.847L135.303 0.135922V0.634304Z" fill="#1F97D4"/>
<path d="M125.905 13.754H123.126V14.0712H125.905V13.754Z" fill="#1F97D4"/>
<path d="M125.905 14.7896H123.126V15.1068H125.905V14.7896Z" fill="#1F97D4"/>
<path d="M125.911 15.8252H123.126V16.1424H125.911V15.8252Z" fill="#1F97D4"/>
<path d="M125.361 16.8544H123.126V17.1715H125.361V16.8544Z" fill="#1F97D4"/>
<path d="M125.905 13.3139H126.455L125.911 12.822L125.905 13.3139Z" fill="#1F97D4"/>
<path d="M147.486 15.4239H144.701V15.7411H147.486V15.4239Z" fill="#1F97D4"/>
<path d="M147.486 16.4595H144.701V16.7767H147.486V16.4595Z" fill="#1F97D4"/>
<path d="M147.486 17.4951H144.701V17.8123H147.486V17.4951Z" fill="#1F97D4"/>
<path d="M144.701 18.8479H146.929V18.5307L144.701 18.5243V18.8479Z" fill="#1F97D4"/>
<path d="M147.486 14.9838H148.031L147.486 14.4919V14.9838Z" fill="#1F97D4"/>
<path d="M144.701 6.03884H142.922V6.35599H144.701V6.03884Z" fill="#1F97D4"/>
<path d="M144.701 6.74434H142.922V7.06149H144.701V6.74434Z" fill="#1F97D4"/>
<path d="M144.036 7.45631H142.922V7.77346H144.036V7.45631Z" fill="#1F97D4"/>
<path d="M144.49 5.83172H145.06L144.49 5.31392V5.83172Z" fill="#1F97D4"/>
<path d="M135.726 27.6311H133.946V27.9547H135.726V27.6311Z" fill="#1F97D4"/>
<path d="M135.726 28.3366H133.946V28.6602H135.726V28.3366Z" fill="#1F97D4"/>
<path d="M135.06 29.0485H133.946V29.3657H135.06V29.0485Z" fill="#1F97D4"/>
<path d="M135.521 27.4239H136.091L135.521 26.9062V27.4239Z" fill="#1F97D4"/>
</g>
</g>
<defs>
<clipPath id="clip0_262_1737">
<rect width="192" height="30" fill="white"/>
</clipPath>
</defs>
</svg>
